@startuml

' Диаграмма классов
class EngineSource {
    +generateEvent(): void
    +addListener(listener: EngineListener): void
    +removeListener(listener: EngineListener): void
}

class EngineEvent {
    -eventType: String
    +getEventType(): String
}

interface EngineListener {
    +handleEvent(event: EngineEvent): void
}

EngineSource "1" *-- "*" EngineListener : notifies
EngineEvent "1" *-- "1" EngineSource : generated by
EngineListener <|.. "1" EngineListener : implementation

@enduml
